<mxfile host="app.diagrams.net" modified="2023-03-15T07:12:57.646Z" agent="5.0 (Macintosh; Intel Mac OS X 10_15_7) AppleWebKit/537.36 (KHTML, like Gecko) Chrome/111.0.0.0 Safari/537.36" etag="iMMrqQ1SMSj9ET8_IKWb" version="21.0.6" type="github">
  <diagram id="lUdaiO9vyYA_eTEFXgUp" name="第 1 页">
    <mxGraphModel dx="3753" dy="397" grid="1" gridSize="10" guides="1" tooltips="1" connect="1" arrows="1" fold="1" page="1" pageScale="1" pageWidth="827" pageHeight="1169" math="0" shadow="0">
      <root>
        <mxCell id="0" />
        <mxCell id="1" parent="0" />
        <mxCell id="kVqAeBF7xhMF057fxwR8-1" value="" style="shape=image;verticalLabelPosition=bottom;labelBackgroundColor=default;verticalAlign=top;aspect=fixed;imageAspect=0;image=data:image/png,iVBORw0KGgoAAAANSUhEUgAAAOAAAADhCAMAAADmr0l2AAAAq1BMVEX29vYnJjbw8PDy8vInJjf////4+Pju7u75+fklJDT8/PwjIjMAAB4AAB8AABwhIDEYFys6OUcAABgbGS0AABURDyYdHC4UEygKByIaGCw0M0EsKzsgHy/X19mAgIZmZW/i4uSTkpnLy86npqw9PElhYWtSUVxFRFCwsLRxcXmDhIqcnKINCyIGACLDw8eMjJJWVmCsrK8xLkC8u753dn8UEixKSlTZ2twzMz2m9OJvAAAVcklEQVR4nNVdB3viuhJ1k2TLgAHHJSaEFloIJLmkvP//y54KJLEkgw0u7Nm7u9/mJljjGU2zPEfTKga0MbaN4X72+jj/emL4mj++bvZTZANsw6qvXy2IcGg3GSX9bRD5oee6rkV+uV7oR/G2/99oskP4HxUSUungdLOI4yh0dUvXLfL7B+wfThjFwWIy1YDd9HKLA2I8fU5akaefgddtJ89TcjOaXnEh2ABtklaXae48XH+bbMb/kBoxGK77kZtHth8Zo/56CHDTK88FG+8WnTCX6lLw+4sdvn0tQjB9a53deDIsAq/zNgU3vhfBeN0Pi4t3hNcZjUHTMpyAbU+CC4zzL/yXiX2jdgo1MO0FV0nHECQ3aqe2/Xp3weaT4d293qIS8feyBPVxfC6/by5igH1Qivo4ws/9bfkaCJ5bTnnykTS19XpLOoRwFJ9ZsRt2oyBudTqtdpuUFvc+uR8n/W08up2NaKNl99RavW4cDOa0BBx+EwynpDicDz633ZNGHS3RjUhooyTMUAf5YhgEX5PdGABMKz8Cm5bAGAC02yy6cZitxzAZ34SZ2mM9UxNu9DlfjdWFO5EToP2o++JliRjq4xvQ4Qn5wtZyhsDJSo/IuPrKTO68G5CQ26dSvP58is/XsbQyHt1l2PhDghpOaqD2pJbP68yHpITNszxog+EoowIJe2blMpwEniv9pxMvp6BAM4mI+BUrK+T7t0Z7UuDxRXnfo03R0tXG776v+qzgo8GcBqxaqq2zfbugqIN4PG8rBLRas8YktId91T3vFFYfB8Szjqu4X/1hU64UJgrP4L1cXs6BoRdakojuoNRVF1jORyTLd/+Erkg/sPH1KX9md92IkeJ9S17L55t2lT3Z2jqQrbSzbyBng8ZA9uvBiCSb130sXst1s+s1EO/Bo2ygn+vr7zQEH7HkmrskVtQsosqDlhOUIR59Slban9btScGX5EHDZTlJB8RvUsj3nmrutOH9Vtoog7IKVGj2pLsXr2r1M9CWluC8DPPl1jlgf987gpXWHAzxSurBbN9LDFaKEBTMalQhhIkYIvxRqcFYSiIsosL6dqEt7UAnNMu9PBSirFXnLoRYcqHtsnMNPBXDkLusTUB72hFcQDgv24tDsBZjRWtXVyzEH8K1rfa49P0Bx2JSGpaQJ+W7tCEmad3n8tN9iCdCUmp1yr+NSuB34cpOF5UWAn8BDV1w1XVFCvAmuJjuayX1Gt4IN9Jd1lIXQnQnWOhnNaYDkdiRvKvFRiUL9asquMHzffpKUS02CtbCjd1Oi1URuVu59rfQZvPearBRqAnyuUn+GAjJL4P8ygmpJotqqOztqZCmRZtcdkNkg6ZBZDOhkdfl4pmwG+IaYj3eCFGwn2fnE8UZhmlCiDTTzG2kkj/rTqrfhGCUNlG3d3ZfUMUZRCqT/oE0BI28hgYWKRu1HqrfhFKl1D11WoAKAqlZEqE0AxIdmlTE3AIK5mLpTu4fvRRSihjvsgU02J4jmjMNqjWTqBCRr5q5vYw9bacF3FYeCe2dUMu3lI6Nfs0gW434EyobZDZKTdWkWzH31aAmbPi48hYwnqV7656qSoMmMkxE1Eb0pTEBqQpNGiFMWChrxUJaWL2XwUJ24QuP7yDVkUHFgVRdVFimNao4QyuckouXCyt/TCE60VT2BI/7i/gU6laoMZoGYl+HxaXTaHcrHQmrz2WEboUV74+hl2jIpH9Ag5smiXrUOhH5ImK77hL3YE/TW95Jivw0pPZTDNAcpM6kWe0hTVFYCGA6Y86EuE/qLllooNG94EX+XA6OO2kB3fxxgq+q6BUNodkVI2p/JHozuSDTH/2P37rc8eDE9dKH/OLc2ahB9kaBiHS8IBJMRkcs0EH2F03CaChgIa+c5xSakFfkaFvA391CjargBVH/j3CDJOkxwejHsA1naMahWignIEP8lRawfeaBPWTC0WyQxiStuIDjQ0/dsvSk10v0p+NHmezzYIFUOhfE/sgJAfktpaUKNU5o0g1YuB1tD1nulCQO/+uBCQipUzGJwzSu3nQihHT7RMFksowQ0vTQPNxxZlLFwATsDXSiO4JB72FhQ4Tg8UPLTxTBPKeAfPcb3HeS33xVxeSjEeC7RcSiovUcYqU9/YlKZRboQxSEqMGt9KjXYA6N7ROWPkHzEJyoW895FZY/mtT1m8TJJMkgcZiJOr3BE6zALv/gxB7kq0J0VSbthLCoQG80kazYqkySO2smi99w3HcSJ0n0ZMBsdDAomD0XBVxmeVGTJoEsHhjMtVHnycMeky1fegF5LmnSsI0QkRGi0GGbMOkxX+qEFVegQuak99HBnBBVG1kPokGKVZsaoiZaZDn0R1nFikg2ycpxsncT1yLxoZdwFertavtcEAnHNQN0yAa5kGzrcfUZhxXnBdWcRj+NuFqTla2sONeeXGvw3+9tlTd9qZBy0QFiLR5arpgsuWApIvUpBtt2eW83/0GWXfI8zGR9FUPDi4f0Ha22xBYbCMlC4xWLyctntqqf5KKIMfHAdti/NAHiTTHDFurBiktsoTM6SOaY7hTqWA4WZXADLQwmIDSRyS2A7l7ErjhJtywqLrGB8Kx18Ih/VkWTJ9Y6uOiT6T05xAYq6I95CyW25Qwq3YN4KTTv323WvWImxVR3sY+jmZ3JsnIT/fmcQzL6i36lrzagtI/Rox0Pf6xFd11qSEMDMpBY+kAkPNIKqjzdgcUm5csY0ZWVUZCxuKmwbyCkFpUeDRCbau7/aNAqI++Fmemz+FTSiSoUEAzSZ9bCdWn7IVP/ttDIqzLUw2EndTbWquMRLxwL28J/rCxQgFchUTvXsCgDEAhtIOe+qnIC2sJBEset4z0fLN7WyvyovRMeJovPCSq6rPgM2/uqSEAwT+e9NTxbYsAvwiGydjVuxh4Ku93ql3xmMwP4UYj14bwSyxHz0OoO5Aiwp0L+VI0K7W/pMnWdp8Q94ZSc91bB3gAjQYGOe+VbNbkhnSTRW+XvftlOKjrzpwBEXWGugzsoO0BB/CS+fl79AYQfgEfxuHFU9t0Fm1g68Fvfyy/2d0u4ulXyy0X2d198f6lV5+tL4pN6eiSvzOY9hEshxuthFY4sE/a39OpSqa9pgmfpJcKKsonMFUiH/vVteW9Lg5X0PnZYx1HRP4DjO+kdv86JQ12FgGnfJ/Xxln73XfMLhOBVMiKnNSxFQnscSC/PdmsfFwA1+RVeNypjAIw9tqS3B537yk8ZSsD7tmSk3uB6CTFSjP9o1/t6JAPEo3tpIZ537bwwPB7I8pEQ0cDEDhu58iAurzu9ZrNAPHQVA4KiZubm4L2Yz9B92FldkVGBfV9+Od9qNWCgfDmPill4Vufx0nlhNn4VX6ph+mtm0oPGjiGpxgEFX+OLlIjHb4rpbJbXa26uE0ShYoyP5UWz4gNXIFjdq26X09AG5MBT5cQ/d/s1LKZECMZvbcdSjN8pLT+6DHglvu16ELH1gUDuDgPExmtLOfzK6pf59volADPF0BWqiPvOK8pnqBCgSTtjdmB70viUSvAqVU4HdOPH77OD1SDG4+dAMXmH3aa4yYlVR4BX1awptkC/87Y6NRoP0sF483Y3a/bfTchHJRT7X7/wPqP5+xgL0w3pCXwiHBivRt2X7KHO7duQjzaIsiVk4ymTj9kUsfmUHAAANHz/6AVxmD121WpNbmYAPlgpMqw/S3X8YBvfL9fPrxuC1+f1MozjwFfNGPtFp2n/+Rdg2j0xKJTDcUO/GxF0/dAVp6lI98Tb7m5IPppmLdWe8EJET7c2p9mGH+3Sxhi7rbXZ+GBRCWAfXTkG/ogwXt2Me/kLgKR28EXwLpn9WD1sAKfPZQhoPTzutFsjnqBzbB+tdikK1HU/fvjIMz23NthgPFu270vyMXQ8pRO2ejfDAoPB8COSW7XXwg1e1tPTI57rALHN/WJ7IuG6AlbYXq4a5CuiF8bwPYlLZCkQ4cX6TGss4kOszSz1bOXy4AbhxmxGi1R7L5XY5i+YwwkGRIu1i2iDfa9q7R3hviSrmingIBi+tYuJ5zheGPoMYegpuv4nYDnxV51MNxAbH51cQd0icoVRELfj2E++5qPnR4rRfNF7iAmCiPhfeSyzCl5rjeqyUxuv/JMEGke4pM69T0aT2W6IIGA4FvQA2Oh7N5uMev428L08+vSDWT12CsaLc4UR0YkXtbvLx9WQdSpsxcIotQbj1Riunr/CdvRwXpXx17DqLBwS9c3ic9bp+PHL22aKcB52SCYmmm7eohf/3K724k3VRDBEfbGqwf4Lt9uynosxX0ImpbF7/q/TPSmjpb98fVepRAhWp9Vn+a3B69S+aK9QIYeTQcs/af8PrVl17tQ211k9Xobw5f5jehUzq43B9PHhZPJnteZGRckb/k6iLOskX/bbi715fYVjA23/tu2eoGXynWkVElLzzL6zVhR8DHE516UUKY/dz+yuqbudlR8SIX5UPUbicKL7CSqzPKUkqX6QvRlb67Ijom2+KVgEDgj88hN+iM2ZF2TmOdFXubRaeDxQErJQdOMNrCCJguRDN5F4tPgHvltmZxhPI08V/Rjz16NRld8mWnwO/AzOMbfE3j7Yx+obaXmt0Tj/k+rigGC8bmXF/vaqJAnBTDpefJAvSHZV578Q7DKJRVubUiQEs4ynf15/YtfQL8H2pCWebz5KWMYTfDDJyF6Cp8pzew4IvpcZ/I3x9e8ugok6/LntSX3tdRtvMvoH22slzJDP6g5qUt9xHcNE/fzxSh1mPX1v1/78ztbWygM5VntyzelGpX+x3O17/W08mgsrzbR9uS8FKuooEtsfyjl8Xng5w1BVjFqtS+Mhnnbk+G7pwVdV9dg52OZCGRL7l53Xw9+RyiS2H83x45KSRnluLL7EpKCh4qYrJ7ZeDrBRRWXXvWDwEl6o0txW06dzwLvKL4TLwgkx+FCYu3PX/OkcsLtTZP6Fz3WDd8VBV7e1q51jTbG06VbhG7bFgoX0CjuTL6ik2VMUEE9VD8w7RRandDBudBPyaTR+fcoSFnI0YK14uNJqfv8dAXYKX1rgDUP8rvj5/v5m5GOeRnYRubehPW6Lpx0tvfHT7ymQxFTBkJuXz1Ym/iJ3p/nT72mAiewGvSRXNAQb+UeDukir8gMrAnWQ521++C11eC1/0Xj0kwDhm1xb5HnX3l5IP+fqTbPCq2AjSwoW3tNZI8XvW+EFaOJgmqn/zgEPZVcanPakkE5Clwy03Ryd+GmoXitqnZnoAdZSDdEQE3UeKBKSM9OJZN5GOqTiBjcgBzQlLlKScJ3aT4oQ2L6VDFQBKE/V0d2nEw8T8F7K0eJbi/Bp0Hgv7Kk4ezwg1P4n1pLesoKHxWV+mDRhVXe8zKkJePYifLPVKn2YYMmT1e2h9K57kGV00BQ5KUufZGQeyN1KhGJqSJiRl0iUlMSDlsjtSces8+HI5Q7+tyVPmjG+C5rSiwH9XSmPN+n7kIxGiw3ZZxRvJcLeSZ50q1ShRPan+/OrIwS9EBuHTOebQ2Ry9rpyU1s8F7PnSLULIfZEVcfXv6LPZtJzAh1GoWUS2VDZNjqW0ssXxbfhlfht19EHM75I6lQ4uRv7g7LX0entJRNUgGfx2aGK1VKcvqxb3SssiU7DphQAB/Y6OpGcT6inQpZ9LAMi4YSiary5NBZVbci5cKBaQZxJkU2lZwRofGz+VbKoASZpFVr6di9KKJHPOtFlSTazSuJHDkwJVC7GzFclcwrUxIO03pvw3FeavUxKx8Iu1GSckVQ2zpjDuNAQYnx99Ix2aQJJkOdlivOcsaBk3QlyuzpG9Al/RtAz9joTmofth/ITsFwOaH4KMfyeBnu6qsM3QHEmKknSci+KGCDiTgRyvjiDURxolxFBXAKIXwUFuTqjBTxuC4FMVKcxMKd8nDiAGiUjY+Hsg5xBRTtQB9UAkXROd7Z7yuZyZF4CH4KLyTfRmgUDbpcmS6I5dRHznZXKI+PPyFPHGug9PRzZnA6RAmppGhC6R8/feeNAsAt5WDiwKZq12WUKpGw6LD1Jej1KnBQzmgy+FnsvKNhbnKhzIY8FjIjvyKpIGfHMI/kYPHxXrcCLB2tgWZQyMHEo+1ywYpkvW4sYBK2XU5PMTOPA8slrHyYi/Y+xdDXWoLJX0aBH6ZKcQU93kp4TzjGj1WNopRsbrqsK8scvHUmBeJrJ1Mft8jKi1itxvKKpDdykl9BGNbFPvffff+FYOzDeSMQjahdDyV8Q44lDBpeI+ROjCF1VuYCcDpPmgdAAH0R5Cd+FlMAo6f6YoTR0WXqGwRlyICdSYyJxT2Jym2zGLpkDoTpiW83Udse3LhMmJvGjRzWJtA6u/rsDD/RuiP1pMA417ks4T1wTDpODrYdlgpR+kPo7+8k7iHbwJN3DRrOHQiFxZGDn5TizYxq7GWUVSzghK4Ua2XKHtI9bEGWrYwUYrVIMMHF6vcEfZ3Jkm5Qy1eNAZEanSak9kflDJk/dknHoQjQDw+BMXsYhn2froomvPYwGfxX4Q1sm8lY4Pv26gXhk40nXDxs5I9ltzjINxqnHiIxNjZdhjDuSrQo76a3mfbFNCI30K7QW86Gs9cVrA6o+ZpkaN4fKa4NMMIJmxjLHyCM1xg7FKjMWpLDoLCPWk7CnQm+YmS5rgJmsQURVSLNWo/5BwiKM1KpM2jIw0A9FlMQRw5nIyRZMC9g24YH5jmbj9FO0Q3xoHAdKROY02YLS99wUGp/cW4p5GslD2Tfz/MSEvN1wA9JR8OSQVy+GtCoskPYy9nqoJeli+OB7yI8jrr1bEU5jDXJk8NRJtSopHviUY3YsPOjmQYI2G0yE2Kc0vvV+wTrjme0rqW6nnRkpEY14iUHNszl/mQW+qqz/C01hpkKwsiW1el+4kXouH860QLBALH3/jCUf43/c7jP5s8CvqentFqkJNfyUCv9WpYyQVUNgKNUdx9agEBy3NTDgVQYoMpn0DU10ov4tnkvLDUOYxLMdatO0E3V6/7CFys/Igp22EoiDqyFqqwtYcJnRRpukZyQfi91/FGLQ8181YaJk8P5vCyi40XCtCTNB47oo8KqB2H5xF5qwK+Pvf9mJ0uec6dov0Qbpcj6ojyKuCkAkFLe6lv6n3r25/LoYQHrCtaVrg5R8jvdPRwkiYE8YtKOl8+9DI+rfBRilRkU7T0IcVJ2g+acgHEjzH7U0S9vdP52JarQTkSrq+0NGiPEj4s29olQcePbnWeDnB9AgnP+k2/G68aHB1wN//OgwWHBqi+c+HZ3kdvuv9U4prQYQb/qRq1uuf/dx/Mr3ZDlwvyaX8UHdHvB4s9Ct5esQEwX+H/OFTD1MtPuOAAAAAElFTkSuQmCC;" parent="1" vertex="1">
          <mxGeometry x="660.4300000000001" y="2078.75" width="189.15" height="190" as="geometry" />
        </mxCell>
        <mxCell id="kVqAeBF7xhMF057fxwR8-8" value="" style="edgeStyle=orthogonalEdgeStyle;rounded=0;hachureGap=4;orthogonalLoop=1;jettySize=auto;html=1;fontFamily=Architects Daughter;fontSource=https%3A%2F%2Ffonts.googleapis.com%2Fcss%3Ffamily%3DArchitects%2BDaughter;fontSize=16;fillColor=#f8cecc;strokeColor=#333333;strokeWidth=1;sketch=1;curveFitting=1;jiggle=2;" parent="1" source="kVqAeBF7xhMF057fxwR8-2" target="kVqAeBF7xhMF057fxwR8-3" edge="1">
          <mxGeometry relative="1" as="geometry">
            <mxPoint x="575" y="2173.75" as="targetPoint" />
          </mxGeometry>
        </mxCell>
        <mxCell id="kVqAeBF7xhMF057fxwR8-10" value="" style="edgeStyle=orthogonalEdgeStyle;rounded=0;sketch=1;hachureGap=4;jiggle=2;curveFitting=1;orthogonalLoop=1;jettySize=auto;html=1;fontFamily=Architects Daughter;fontSource=https%3A%2F%2Ffonts.googleapis.com%2Fcss%3Ffamily%3DArchitects%2BDaughter;fontSize=16;strokeColor=#4D4D4D;" parent="1" source="kVqAeBF7xhMF057fxwR8-2" target="kVqAeBF7xhMF057fxwR8-4" edge="1">
          <mxGeometry relative="1" as="geometry">
            <mxPoint x="975" y="2173.8" as="targetPoint" />
          </mxGeometry>
        </mxCell>
        <mxCell id="kVqAeBF7xhMF057fxwR8-2" value="&lt;p style=&quot;line-height: 140%; font-size: 30px;&quot;&gt;&lt;br&gt;&lt;/p&gt;" style="rounded=1;whiteSpace=wrap;html=1;shadow=0;glass=0;sketch=1;fillWeight=2;hachureGap=12;hachureAngle=-41;jiggle=1;curveFitting=1;simplification=0;strokeColor=none;strokeWidth=2;fontFamily=Architects Daughter;fontSource=https%3A%2F%2Ffonts.googleapis.com%2Fcss%3Ffamily%3DArchitects%2BDaughter;fontSize=30;fontColor=#666666;fillColor=#95D2F5;" parent="1" vertex="1">
          <mxGeometry x="655.0000000000001" y="2070" width="200" height="207.5" as="geometry" />
        </mxCell>
        <mxCell id="kVqAeBF7xhMF057fxwR8-13" style="edgeStyle=orthogonalEdgeStyle;rounded=0;sketch=1;hachureGap=4;jiggle=2;curveFitting=1;orthogonalLoop=1;jettySize=auto;html=1;fontFamily=Architects Daughter;fontSource=https%3A%2F%2Ffonts.googleapis.com%2Fcss%3Ffamily%3DArchitects%2BDaughter;fontSize=16;entryX=0.288;entryY=-0.005;entryDx=0;entryDy=0;strokeColor=#FF3333;entryPerimeter=0;" parent="1" source="kVqAeBF7xhMF057fxwR8-3" target="kVqAeBF7xhMF057fxwR8-6" edge="1">
          <mxGeometry relative="1" as="geometry">
            <Array as="points">
              <mxPoint x="455" y="2830" />
              <mxPoint x="645" y="2830" />
            </Array>
          </mxGeometry>
        </mxCell>
        <mxCell id="sny4thyLsxpEXio4V1Pn-10" value="" style="edgeStyle=orthogonalEdgeStyle;rounded=0;sketch=1;hachureGap=4;jiggle=2;curveFitting=1;orthogonalLoop=1;jettySize=auto;html=1;fontFamily=Architects Daughter;fontSource=https%3A%2F%2Ffonts.googleapis.com%2Fcss%3Ffamily%3DArchitects%2BDaughter;fontSize=16;" parent="1" source="kVqAeBF7xhMF057fxwR8-3" edge="1">
          <mxGeometry relative="1" as="geometry">
            <mxPoint x="60" y="2940" as="targetPoint" />
            <Array as="points">
              <mxPoint x="60" y="2610" />
            </Array>
          </mxGeometry>
        </mxCell>
        <mxCell id="kVqAeBF7xhMF057fxwR8-3" value="&lt;p style=&quot;line-height: 70%; font-size: 30px;&quot;&gt;&lt;b style=&quot;border-color: var(--border-color); color: rgb(51, 51, 51);&quot;&gt;nio-app-api-comments&lt;/b&gt;&lt;br&gt;&lt;/p&gt;" style="rounded=1;whiteSpace=wrap;html=1;shadow=0;glass=0;sketch=1;fillWeight=2;hachureGap=12;hachureAngle=-41;jiggle=1;curveFitting=1;simplification=0;strokeColor=#666666;strokeWidth=2;fontFamily=Architects Daughter;fontSource=https%3A%2F%2Ffonts.googleapis.com%2Fcss%3Ffamily%3DArchitects%2BDaughter;fontSize=30;fontColor=#666666;fillColor=#95D2F5;" parent="1" vertex="1">
          <mxGeometry x="290" y="2540" width="330" height="140" as="geometry" />
        </mxCell>
        <mxCell id="kVqAeBF7xhMF057fxwR8-4" value="&lt;p style=&quot;line-height: 140%; font-size: 30px;&quot;&gt;&lt;font color=&quot;#333333&quot;&gt;&lt;b&gt;uad-greatwall-api&lt;/b&gt;&lt;/font&gt;&lt;/p&gt;" style="rounded=1;whiteSpace=wrap;html=1;shadow=0;glass=0;sketch=1;fillWeight=2;hachureGap=12;hachureAngle=-41;jiggle=1;curveFitting=1;simplification=0;strokeColor=#666666;strokeWidth=2;fontFamily=Architects Daughter;fontSource=https%3A%2F%2Ffonts.googleapis.com%2Fcss%3Ffamily%3DArchitects%2BDaughter;fontSize=30;fontColor=#666666;fillColor=#95D2F5;" parent="1" vertex="1">
          <mxGeometry x="867.63" y="2540" width="330" height="140" as="geometry" />
        </mxCell>
        <mxCell id="kVqAeBF7xhMF057fxwR8-6" value="&lt;p style=&quot;line-height: 140%; font-size: 30px;&quot;&gt;&lt;font color=&quot;#333333&quot;&gt;&lt;b&gt;csd-content&lt;/b&gt;&lt;/font&gt;&lt;/p&gt;" style="rounded=1;whiteSpace=wrap;html=1;shadow=0;glass=0;sketch=1;fillWeight=2;hachureGap=12;hachureAngle=-41;jiggle=1;curveFitting=1;simplification=0;strokeColor=#666666;strokeWidth=2;fontFamily=Architects Daughter;fontSource=https%3A%2F%2Ffonts.googleapis.com%2Fcss%3Ffamily%3DArchitects%2BDaughter;fontSize=30;fontColor=#666666;fillColor=#95D2F5;" parent="1" vertex="1">
          <mxGeometry x="550" y="2980" width="330" height="140" as="geometry" />
        </mxCell>
        <mxCell id="kVqAeBF7xhMF057fxwR8-11" value="用户" style="text;html=1;strokeColor=none;fillColor=none;align=center;verticalAlign=middle;whiteSpace=wrap;rounded=0;sketch=1;fontSize=30;fontColor=#FF66FF;" parent="1" vertex="1">
          <mxGeometry x="667.2900000000001" y="2210" width="175.42" height="50" as="geometry" />
        </mxCell>
        <mxCell id="kVqAeBF7xhMF057fxwR8-12" value="读请求" style="text;html=1;strokeColor=none;fillColor=none;align=center;verticalAlign=middle;whiteSpace=wrap;rounded=0;sketch=1;fontSize=30;fontColor=#4D4D4D;" parent="1" vertex="1">
          <mxGeometry x="310.0000000000001" y="2360" width="175.42" height="50" as="geometry" />
        </mxCell>
        <mxCell id="kVqAeBF7xhMF057fxwR8-18" value="部分读流量&lt;br&gt;转发至csd-content" style="text;html=1;strokeColor=none;fillColor=none;align=center;verticalAlign=middle;whiteSpace=wrap;rounded=0;sketch=1;fontSize=30;fontColor=#FF6666;" parent="1" vertex="1">
          <mxGeometry x="367.28999999999996" y="2846" width="270" height="77" as="geometry" />
        </mxCell>
        <mxCell id="kVqAeBF7xhMF057fxwR8-19" value="返回结果" style="text;html=1;strokeColor=none;fillColor=none;align=center;verticalAlign=middle;whiteSpace=wrap;rounded=0;sketch=1;fontSize=30;fontColor=#4D4D4D;" parent="1" vertex="1">
          <mxGeometry x="460.0000000000001" y="2360" width="175.42" height="50" as="geometry" />
        </mxCell>
        <mxCell id="kVqAeBF7xhMF057fxwR8-20" value="" style="edgeStyle=orthogonalEdgeStyle;rounded=0;sketch=1;hachureGap=4;jiggle=2;curveFitting=1;orthogonalLoop=1;jettySize=auto;html=1;fontFamily=Architects Daughter;fontSource=https%3A%2F%2Ffonts.googleapis.com%2Fcss%3Ffamily%3DArchitects%2BDaughter;fontSize=16;entryX=-0.018;entryY=0.62;entryDx=0;entryDy=0;entryPerimeter=0;fontColor=#FF6666;strokeColor=#333333;" parent="1" target="kVqAeBF7xhMF057fxwR8-2" edge="1">
          <mxGeometry relative="1" as="geometry">
            <mxPoint x="479" y="2540" as="sourcePoint" />
            <mxPoint x="349" y="2251" as="targetPoint" />
            <Array as="points">
              <mxPoint x="480" y="2540" />
              <mxPoint x="480" y="2199" />
            </Array>
          </mxGeometry>
        </mxCell>
        <mxCell id="kVqAeBF7xhMF057fxwR8-22" value="" style="edgeStyle=orthogonalEdgeStyle;rounded=0;sketch=1;hachureGap=4;jiggle=2;curveFitting=1;orthogonalLoop=1;jettySize=auto;html=1;fontFamily=Architects Daughter;fontSource=https%3A%2F%2Ffonts.googleapis.com%2Fcss%3Ffamily%3DArchitects%2BDaughter;fontSize=16;strokeColor=#4D4D4D;startArrow=none;startFill=0;endArrow=classic;endFill=1;exitX=0.419;exitY=-0.005;exitDx=0;exitDy=0;exitPerimeter=0;fontColor=#4D4D4D;" parent="1" source="kVqAeBF7xhMF057fxwR8-4" edge="1">
          <mxGeometry relative="1" as="geometry">
            <mxPoint x="1015" y="2530" as="sourcePoint" />
            <mxPoint x="855" y="2190" as="targetPoint" />
            <Array as="points">
              <mxPoint x="1006" y="2530" />
              <mxPoint x="1005" y="2190" />
            </Array>
          </mxGeometry>
        </mxCell>
        <mxCell id="kVqAeBF7xhMF057fxwR8-24" value="旧评论应用" style="text;html=1;strokeColor=none;fillColor=none;align=center;verticalAlign=middle;whiteSpace=wrap;rounded=0;sketch=1;fontSize=30;fontColor=#FF66FF;" parent="1" vertex="1">
          <mxGeometry x="367.28999999999996" y="2630" width="175.42" height="50" as="geometry" />
        </mxCell>
        <mxCell id="kVqAeBF7xhMF057fxwR8-25" value="旧业务网关应用" style="text;html=1;strokeColor=none;fillColor=none;align=center;verticalAlign=middle;whiteSpace=wrap;rounded=0;sketch=1;fontSize=30;fontColor=#FF66FF;" parent="1" vertex="1">
          <mxGeometry x="922.63" y="2630" width="220" height="50" as="geometry" />
        </mxCell>
        <mxCell id="kVqAeBF7xhMF057fxwR8-26" value="社区内容业务应用" style="text;html=1;strokeColor=none;fillColor=none;align=center;verticalAlign=middle;whiteSpace=wrap;rounded=0;sketch=1;fontSize=30;fontColor=#FF66FF;" parent="1" vertex="1">
          <mxGeometry x="592.71" y="3060" width="250" height="50" as="geometry" />
        </mxCell>
        <mxCell id="kVqAeBF7xhMF057fxwR8-27" style="edgeStyle=orthogonalEdgeStyle;rounded=0;sketch=1;hachureGap=4;jiggle=2;curveFitting=1;orthogonalLoop=1;jettySize=auto;html=1;fontFamily=Architects Daughter;fontSource=https%3A%2F%2Ffonts.googleapis.com%2Fcss%3Ffamily%3DArchitects%2BDaughter;fontSize=16;strokeColor=#FF3333;entryX=0.75;entryY=0;entryDx=0;entryDy=0;" parent="1" target="kVqAeBF7xhMF057fxwR8-6" edge="1">
          <mxGeometry relative="1" as="geometry">
            <mxPoint x="1040" y="2680" as="sourcePoint" />
            <mxPoint x="820" y="2970" as="targetPoint" />
            <Array as="points">
              <mxPoint x="1040" y="2830" />
              <mxPoint x="798" y="2830" />
            </Array>
          </mxGeometry>
        </mxCell>
        <mxCell id="kVqAeBF7xhMF057fxwR8-29" value="读请求" style="text;html=1;strokeColor=none;fillColor=none;align=center;verticalAlign=middle;whiteSpace=wrap;rounded=0;sketch=1;fontSize=30;fontColor=#333333;" parent="1" vertex="1">
          <mxGeometry x="1000" y="2340" width="175.42" height="90" as="geometry" />
        </mxCell>
        <mxCell id="kVqAeBF7xhMF057fxwR8-30" value="返回结果" style="text;html=1;strokeColor=none;fillColor=none;align=center;verticalAlign=middle;whiteSpace=wrap;rounded=0;sketch=1;fontSize=30;fontColor=#4D4D4D;" parent="1" vertex="1">
          <mxGeometry x="849.58" y="2360" width="175.42" height="50" as="geometry" />
        </mxCell>
        <mxCell id="sny4thyLsxpEXio4V1Pn-2" style="edgeStyle=orthogonalEdgeStyle;rounded=0;sketch=1;hachureGap=4;jiggle=2;curveFitting=1;orthogonalLoop=1;jettySize=auto;html=1;fontFamily=Architects Daughter;fontSource=https%3A%2F%2Ffonts.googleapis.com%2Fcss%3Ffamily%3DArchitects%2BDaughter;fontSize=16;entryX=0.288;entryY=-0.005;entryDx=0;entryDy=0;strokeColor=#FF3333;entryPerimeter=0;endArrow=none;endFill=0;startArrow=classic;startFill=1;" parent="1" edge="1">
          <mxGeometry relative="1" as="geometry">
            <Array as="points">
              <mxPoint x="477" y="2810" />
              <mxPoint x="667" y="2810" />
            </Array>
            <mxPoint x="477.29" y="2680" as="sourcePoint" />
            <mxPoint x="667.29" y="2979" as="targetPoint" />
          </mxGeometry>
        </mxCell>
        <mxCell id="sny4thyLsxpEXio4V1Pn-3" style="edgeStyle=orthogonalEdgeStyle;rounded=0;sketch=1;hachureGap=4;jiggle=2;curveFitting=1;orthogonalLoop=1;jettySize=auto;html=1;fontFamily=Architects Daughter;fontSource=https%3A%2F%2Ffonts.googleapis.com%2Fcss%3Ffamily%3DArchitects%2BDaughter;fontSize=16;strokeColor=#FF3333;startArrow=classic;startFill=1;endArrow=none;endFill=0;" parent="1" edge="1">
          <mxGeometry relative="1" as="geometry">
            <mxPoint x="1022" y="2680" as="sourcePoint" />
            <mxPoint x="780" y="2980" as="targetPoint" />
            <Array as="points">
              <mxPoint x="1022" y="2810" />
              <mxPoint x="780" y="2810" />
            </Array>
          </mxGeometry>
        </mxCell>
        <mxCell id="sny4thyLsxpEXio4V1Pn-4" value="部分读流量&lt;br&gt;转发至csd-content" style="text;html=1;strokeColor=none;fillColor=none;align=center;verticalAlign=middle;whiteSpace=wrap;rounded=0;sketch=1;fontSize=30;fontColor=#FF6666;" parent="1" vertex="1">
          <mxGeometry x="802.29" y="2846" width="270" height="77" as="geometry" />
        </mxCell>
        <mxCell id="sny4thyLsxpEXio4V1Pn-13" value="" style="edgeStyle=orthogonalEdgeStyle;rounded=0;sketch=1;hachureGap=4;jiggle=2;curveFitting=1;orthogonalLoop=1;jettySize=auto;html=1;fontFamily=Architects Daughter;fontSource=https%3A%2F%2Ffonts.googleapis.com%2Fcss%3Ffamily%3DArchitects%2BDaughter;fontSize=16;entryX=-0.018;entryY=0.62;entryDx=0;entryDy=0;entryPerimeter=0;fontColor=#FF6666;strokeColor=#333333;exitX=0.527;exitY=-0.005;exitDx=0;exitDy=0;exitPerimeter=0;" parent="1" edge="1">
          <mxGeometry relative="1" as="geometry">
            <mxPoint x="92.28999999999996" y="2939.05" as="sourcePoint" />
            <mxPoint x="290" y="2639" as="targetPoint" />
            <Array as="points">
              <mxPoint x="90" y="2939" />
              <mxPoint x="90" y="2639" />
            </Array>
          </mxGeometry>
        </mxCell>
        <mxCell id="sny4thyLsxpEXio4V1Pn-16" value="" style="edgeStyle=orthogonalEdgeStyle;rounded=0;sketch=1;hachureGap=4;jiggle=2;curveFitting=1;orthogonalLoop=1;jettySize=auto;html=1;fontFamily=Architects Daughter;fontSource=https%3A%2F%2Ffonts.googleapis.com%2Fcss%3Ffamily%3DArchitects%2BDaughter;fontSize=16;entryX=0.594;entryY=0.005;entryDx=0;entryDy=0;entryPerimeter=0;" parent="1" edge="1">
          <mxGeometry relative="1" as="geometry">
            <mxPoint x="1198" y="2620" as="sourcePoint" />
            <mxPoint x="1390.38" y="2937.95" as="targetPoint" />
            <Array as="points">
              <mxPoint x="1198" y="2600" />
              <mxPoint x="1390" y="2600" />
            </Array>
          </mxGeometry>
        </mxCell>
        <mxCell id="sny4thyLsxpEXio4V1Pn-18" value="" style="edgeStyle=orthogonalEdgeStyle;rounded=0;sketch=1;hachureGap=4;jiggle=2;curveFitting=1;orthogonalLoop=1;jettySize=auto;html=1;fontFamily=Architects Daughter;fontSource=https%3A%2F%2Ffonts.googleapis.com%2Fcss%3Ffamily%3DArchitects%2BDaughter;fontSize=16;strokeColor=#4D4D4D;startArrow=none;startFill=0;endArrow=classic;endFill=1;fontColor=#4D4D4D;" parent="1" edge="1">
          <mxGeometry relative="1" as="geometry">
            <mxPoint x="1365" y="2937" as="sourcePoint" />
            <mxPoint x="1197.63" y="2620" as="targetPoint" />
            <Array as="points">
              <mxPoint x="1370" y="2937" />
              <mxPoint x="1370" y="2620" />
            </Array>
          </mxGeometry>
        </mxCell>
        <mxCell id="sny4thyLsxpEXio4V1Pn-22" value="&lt;font color=&quot;#ff6666&quot;&gt;返回数据&lt;/font&gt;" style="text;html=1;strokeColor=none;fillColor=none;align=center;verticalAlign=middle;whiteSpace=wrap;rounded=0;sketch=1;fontSize=30;fontColor=#4D4D4D;" parent="1" vertex="1">
          <mxGeometry x="491.8700000000001" y="2753.5" width="175.42" height="50" as="geometry" />
        </mxCell>
        <mxCell id="sny4thyLsxpEXio4V1Pn-23" value="&lt;font color=&quot;#ff6666&quot;&gt;返回数据&lt;/font&gt;" style="text;html=1;strokeColor=none;fillColor=none;align=center;verticalAlign=middle;whiteSpace=wrap;rounded=0;sketch=1;fontSize=30;fontColor=#4D4D4D;" parent="1" vertex="1">
          <mxGeometry x="802.2900000000002" y="2753.5" width="175.42" height="50" as="geometry" />
        </mxCell>
        <mxCell id="3CVwPBXhfEZfI7aNGoEs-1" value="" style="shape=image;verticalLabelPosition=bottom;labelBackgroundColor=default;verticalAlign=top;aspect=fixed;imageAspect=0;image=data:image/png,iVBORw0KGgoAAAANSUhEUgAAAOEAAADhCAMAAAAJbSJIAAAAflBMVEX///8AAAAwMDAODg74+Pjv7+/f39/y8vLZ2dnOzs7Kysp7e3vq6urBwcFfX194eHiqqqqfn5+UlJSKioqwsLBpaWnj4+MgICCEhIQ/Pz8UFBS5ubk6OjpycnKQkJCkpKRGRkYqKipRUVFlZWVXV1cbGxskJCRCQkI1NTUtLS3r3xNZAAAHJ0lEQVR4nO2da5uaOhCArXILEK4hopGbuFv3///BA9o9tV1hCYSM5znzfqm2T5O8BjEZmGGzQRAEQRAEWYbtc4cQl4ooTtI0z70wLMLQy/M0TeJIUJcQh/s29DCl4a6I0uJyaPa7H1PY7ZvDpUgjRh0DeuxjGLbDYq+e5DRG7SURMV9L1bdEmh0Wq/3JIcsjx4dW6+TcODhMOxZncQpil4PZWSw7ruf2wDGLHO12PMq0yP2mjfXNpUHyk2a9OyfP1XECcr09iN6dfeGuq+cngHaflOsdriSAlvtFsM5EiuU/5uqohXI/AnNyGeZKlPqZun8bptAqXPEwaJkBmCpBD9pkkFCJn/1q38BHrgr2libkD/z3vJlLBY2tkoHsjh0P7/u3arYk26ULubk/8m/nMIkZJZZpG4/Y9l/vTYtQFifh+W1mT8EywUq2v+acM2rN+1wNi7L83MjObbVE0JToaBvkVMmm3HRoHnxI9Lzkq5hO7CMoha92Y2P4NJn6DUkX9DOl/XbFDbgVtVOGML8D+k3LbxcN4QUrCr47CdHZjY8epIfc1RXKtUk6Gsqbf5ieB9s8aYya3OHx8O7tPLvV64BetXghMQsz+vl8QNfZTT5dzyjemMlBnn7o29ntPV+xveWWwjHLYOXPVwOqDfvjNNJ/XcEYOkZXMeyotZ5r/JHzzFqGHdeQ6bDkwvtmIKsZ9pyCmKz3s2iSqh04oWszvHEMYqp6Ni0Rt1M3VOsb3nlv00504bVNw/TdqGzfpXrWZfgpWrdhGbmOxaevC2zfcjqxsK3l1GAMf/PWXH+eM6+MmbjflOB02pxb3Z+32xcEi8s8u9Sn7dz9PbShNtAQDV8fNETD1wcN0fCR3eAuVBunr/t8lYbHDa8g71g4V3zz9VYzpXN4+3uaQhy/1/R+k8m6c7j7/CdOPZ0HbO393oBqMuzx3XI4ZqyOoHT/uKSl0fAGZ16zmtwpfRIJ0m14wxHpZUI8ZTrHU5DQgbAsiOEN36FJcZ61SX/gGhSd21h4AM7wjmH6NEryQHJK93VWxoyY9vdhHmjDR1nfcQVjUZLmYZFlQRBkWVF0r9qsI/TSpIqYoMSSC0e+kOFKoKEMaAgDGsqAhjCgoQxoCAMayoCGMKChDGgIAxrKgIYwoKEMaAgDGsqAhjCgoQxoCAMayoCGMKChDGgIAxrKgIYwoKEMaAgDGsqAhjCgoQxP7uZWONK5fB2UUsMQusCv8aS2mtqMkqOyMnCzEM/K3qrOmXmPoApwG+L5fbnqs4J2hZZisH/hpEN3WK+S97RvhdaZJOnIbdWrZXY1qdBSqObbalGr5q59FAlRXObrAYPTckItrPWz87YXjxHFZSM4Yd6lmdj/7F7k8reO2yBhQ2kg07FclgRbqVro2jMs389eUgnC+xKJU7rpqyf6RFRJHjSzOgTMId2fzlkR5mUcCdfpsXpurwhlVVLmYdGeT0sLiGKWLBq+PmiIhq8PGqLh66M01qb6oUfyrF41wqogn+MRxJaOqhG2OxhPWJNteS/rqykibNO80WD1SZPTf4MmGmPe3C1n14qfzvsFtmqEaUUKniY3xCVn/EvAC+K6hWGx5KJYLkiGyrzDXZkxiEjaQ7NM7PhRFxUdrYMOfu3Jdwgru537VSbU8n64ZF4syGhBjFcx/MSwfZ8T0ccqbg/o9Iqi6B/Q2b8KPc/L07RM4v7Blb5vykSXX8ZwNdBQBjSEAQ1lQEMY0FAGNIQBDWVAQxjQUAY0hAENZUBDGNBQBjSEAQ1lQEMY0FAGNIQBDWVAQxjQUAY0hAENZUBDGNBQBjSEAQ1lQEMY0FCG/6PhjxCq2sAndvh1UGozSnYxpKMRq60aMZDkny/OZp6JlT8f0HV2i4PPbzzF/vf/WzF+dRoaznl2o+lQk32rpaOvNobhJIOfdkc6u2E60mpHE0Sjt5wrwmJtMz4QOr/x8YZvXOIV65wYJJ6S5bCgh7HD9IH3IqG+2iIgtk+TYmJ21fyDdLMxp3VxY1dn5bR0glEMi4gyk8o2WtRlJdHRL9GPOksYJVzu2DU4oSzJ6g+pghg3qiWCm82iZMOmDsJbToWgLnE4575v230aBucOcalgUZyUYVA3SzoJlgluDKUPwV2B7eLznAmRTDmdvYITnD24lHgBTmoWyU9qwL0IoRK/DgZtMoDC4nhmBi3zhFbt6p+82rfxSpT69dD10n3lqRcstkcgkLUGHgncVfx6/ARarqNceffteksrcy1hX6w3fb8xSA5T/+PgaSy5yaNCs14WKy5bOAGLZfJbnTkcCy3Rkuf4bhwcvgahlXEKYlf/3H3VtERZqP5qHrKUOfpjlmMYtiNir146obvaixkxoUtOj8NdEaXF5fCxn6a7238cLkUaCaoxBKsI2+cOIYSKPlzRl44IwyLsS0fcCkb0sQ3icB/6Yg+CIAiCIP99/gHFN5OJW6JEwQAAAABJRU5ErkJggg==;" parent="1" vertex="1">
          <mxGeometry x="-20" y="2940" width="190" height="190" as="geometry" />
        </mxCell>
        <mxCell id="3CVwPBXhfEZfI7aNGoEs-2" value="&lt;p style=&quot;line-height: 140%; font-size: 30px;&quot;&gt;&lt;br&gt;&lt;/p&gt;" style="rounded=1;whiteSpace=wrap;html=1;shadow=0;glass=0;sketch=1;fillWeight=2;hachureGap=12;hachureAngle=-41;jiggle=1;curveFitting=1;simplification=0;strokeColor=none;strokeWidth=2;fontFamily=Architects Daughter;fontSource=https%3A%2F%2Ffonts.googleapis.com%2Fcss%3Ffamily%3DArchitects%2BDaughter;fontSize=30;fontColor=#666666;fillColor=#95D2F5;" parent="1" vertex="1">
          <mxGeometry x="-17.5" y="2940" width="190" height="205" as="geometry" />
        </mxCell>
        <mxCell id="3CVwPBXhfEZfI7aNGoEs-3" value="旧评论存储库" style="text;html=1;strokeColor=none;fillColor=none;align=center;verticalAlign=middle;whiteSpace=wrap;rounded=0;sketch=1;fontSize=30;fontColor=#FF66FF;" parent="1" vertex="1">
          <mxGeometry x="-20" y="3118" width="195" height="80" as="geometry" />
        </mxCell>
        <mxCell id="3CVwPBXhfEZfI7aNGoEs-4" value="" style="shape=image;verticalLabelPosition=bottom;labelBackgroundColor=default;verticalAlign=top;aspect=fixed;imageAspect=0;image=data:image/png,iVBORw0KGgoAAAANSUhEUgAAAOEAAADhCAMAAAAJbSJIAAAAflBMVEX///8AAAAwMDAODg74+Pjv7+/f39/y8vLZ2dnOzs7Kysp7e3vq6urBwcFfX194eHiqqqqfn5+UlJSKioqwsLBpaWnj4+MgICCEhIQ/Pz8UFBS5ubk6OjpycnKQkJCkpKRGRkYqKipRUVFlZWVXV1cbGxskJCRCQkI1NTUtLS3r3xNZAAAHJ0lEQVR4nO2da5uaOhCArXILEK4hopGbuFv3///BA9o9tV1hCYSM5znzfqm2T5O8BjEZmGGzQRAEQRAEWYbtc4cQl4ooTtI0z70wLMLQy/M0TeJIUJcQh/s29DCl4a6I0uJyaPa7H1PY7ZvDpUgjRh0DeuxjGLbDYq+e5DRG7SURMV9L1bdEmh0Wq/3JIcsjx4dW6+TcODhMOxZncQpil4PZWSw7ruf2wDGLHO12PMq0yP2mjfXNpUHyk2a9OyfP1XECcr09iN6dfeGuq+cngHaflOsdriSAlvtFsM5EiuU/5uqohXI/AnNyGeZKlPqZun8bptAqXPEwaJkBmCpBD9pkkFCJn/1q38BHrgr2libkD/z3vJlLBY2tkoHsjh0P7/u3arYk26ULubk/8m/nMIkZJZZpG4/Y9l/vTYtQFifh+W1mT8EywUq2v+acM2rN+1wNi7L83MjObbVE0JToaBvkVMmm3HRoHnxI9Lzkq5hO7CMoha92Y2P4NJn6DUkX9DOl/XbFDbgVtVOGML8D+k3LbxcN4QUrCr47CdHZjY8epIfc1RXKtUk6Gsqbf5ieB9s8aYya3OHx8O7tPLvV64BetXghMQsz+vl8QNfZTT5dzyjemMlBnn7o29ntPV+xveWWwjHLYOXPVwOqDfvjNNJ/XcEYOkZXMeyotZ5r/JHzzFqGHdeQ6bDkwvtmIKsZ9pyCmKz3s2iSqh04oWszvHEMYqp6Ni0Rt1M3VOsb3nlv00504bVNw/TdqGzfpXrWZfgpWrdhGbmOxaevC2zfcjqxsK3l1GAMf/PWXH+eM6+MmbjflOB02pxb3Z+32xcEi8s8u9Sn7dz9PbShNtAQDV8fNETD1wcN0fCR3eAuVBunr/t8lYbHDa8g71g4V3zz9VYzpXN4+3uaQhy/1/R+k8m6c7j7/CdOPZ0HbO393oBqMuzx3XI4ZqyOoHT/uKSl0fAGZ16zmtwpfRIJ0m14wxHpZUI8ZTrHU5DQgbAsiOEN36FJcZ61SX/gGhSd21h4AM7wjmH6NEryQHJK93VWxoyY9vdhHmjDR1nfcQVjUZLmYZFlQRBkWVF0r9qsI/TSpIqYoMSSC0e+kOFKoKEMaAgDGsqAhjCgoQxoCAMayoCGMKChDGgIAxrKgIYwoKEMaAgDGsqAhjCgoQxoCAMayoCGMKChDGgIAxrKgIYwoKEMaAgDGsqAhjCgoQxP7uZWONK5fB2UUsMQusCv8aS2mtqMkqOyMnCzEM/K3qrOmXmPoApwG+L5fbnqs4J2hZZisH/hpEN3WK+S97RvhdaZJOnIbdWrZXY1qdBSqObbalGr5q59FAlRXObrAYPTckItrPWz87YXjxHFZSM4Yd6lmdj/7F7k8reO2yBhQ2kg07FclgRbqVro2jMs389eUgnC+xKJU7rpqyf6RFRJHjSzOgTMId2fzlkR5mUcCdfpsXpurwhlVVLmYdGeT0sLiGKWLBq+PmiIhq8PGqLh66M01qb6oUfyrF41wqogn+MRxJaOqhG2OxhPWJNteS/rqykibNO80WD1SZPTf4MmGmPe3C1n14qfzvsFtmqEaUUKniY3xCVn/EvAC+K6hWGx5KJYLkiGyrzDXZkxiEjaQ7NM7PhRFxUdrYMOfu3Jdwgru537VSbU8n64ZF4syGhBjFcx/MSwfZ8T0ccqbg/o9Iqi6B/Q2b8KPc/L07RM4v7Blb5vykSXX8ZwNdBQBjSEAQ1lQEMY0FAGNIQBDWVAQxjQUAY0hAENZUBDGNBQBjSEAQ1lQEMY0FAGNIQBDWVAQxjQUAY0hAENZUBDGNBQBjSEAQ1lQEMY0FCG/6PhjxCq2sAndvh1UGozSnYxpKMRq60aMZDkny/OZp6JlT8f0HV2i4PPbzzF/vf/WzF+dRoaznl2o+lQk32rpaOvNobhJIOfdkc6u2E60mpHE0Sjt5wrwmJtMz4QOr/x8YZvXOIV65wYJJ6S5bCgh7HD9IH3IqG+2iIgtk+TYmJ21fyDdLMxp3VxY1dn5bR0glEMi4gyk8o2WtRlJdHRL9GPOksYJVzu2DU4oSzJ6g+pghg3qiWCm82iZMOmDsJbToWgLnE4575v230aBucOcalgUZyUYVA3SzoJlgluDKUPwV2B7eLznAmRTDmdvYITnD24lHgBTmoWyU9qwL0IoRK/DgZtMoDC4nhmBi3zhFbt6p+82rfxSpT69dD10n3lqRcstkcgkLUGHgncVfx6/ARarqNceffteksrcy1hX6w3fb8xSA5T/+PgaSy5yaNCs14WKy5bOAGLZfJbnTkcCy3Rkuf4bhwcvgahlXEKYlf/3H3VtERZqP5qHrKUOfpjlmMYtiNir146obvaixkxoUtOj8NdEaXF5fCxn6a7238cLkUaCaoxBKsI2+cOIYSKPlzRl44IwyLsS0fcCkb0sQ3icB/6Yg+CIAiCIP99/gHFN5OJW6JEwQAAAABJRU5ErkJggg==;" parent="1" vertex="1">
          <mxGeometry x="1280" y="2940" width="190" height="190" as="geometry" />
        </mxCell>
        <mxCell id="3CVwPBXhfEZfI7aNGoEs-5" value="&lt;p style=&quot;line-height: 140%; font-size: 30px;&quot;&gt;&lt;br&gt;&lt;/p&gt;" style="rounded=1;whiteSpace=wrap;html=1;shadow=0;glass=0;sketch=1;fillWeight=2;hachureGap=12;hachureAngle=-41;jiggle=1;curveFitting=1;simplification=0;strokeColor=none;strokeWidth=2;fontFamily=Architects Daughter;fontSource=https%3A%2F%2Ffonts.googleapis.com%2Fcss%3Ffamily%3DArchitects%2BDaughter;fontSize=30;fontColor=#666666;fillColor=#95D2F5;" parent="1" vertex="1">
          <mxGeometry x="1282.5" y="2940" width="190" height="205" as="geometry" />
        </mxCell>
        <mxCell id="3CVwPBXhfEZfI7aNGoEs-6" value="旧评论存储库" style="text;html=1;strokeColor=none;fillColor=none;align=center;verticalAlign=middle;whiteSpace=wrap;rounded=0;sketch=1;fontSize=30;fontColor=#FF66FF;" parent="1" vertex="1">
          <mxGeometry x="1280" y="3118" width="195" height="80" as="geometry" />
        </mxCell>
        <mxCell id="3CVwPBXhfEZfI7aNGoEs-14" value="" style="edgeStyle=orthogonalEdgeStyle;rounded=0;sketch=1;hachureGap=4;jiggle=2;curveFitting=1;orthogonalLoop=1;jettySize=auto;html=1;fontFamily=Architects Daughter;fontSource=https%3A%2F%2Ffonts.googleapis.com%2Fcss%3Ffamily%3DArchitects%2BDaughter;fontSize=16;strokeColor=#FF0000;" parent="1" edge="1">
          <mxGeometry relative="1" as="geometry">
            <mxPoint x="700" y="3130" as="sourcePoint" />
            <mxPoint x="700" y="3290" as="targetPoint" />
            <Array as="points">
              <mxPoint x="701" y="3140" />
              <mxPoint x="700" y="3140" />
            </Array>
          </mxGeometry>
        </mxCell>
        <mxCell id="3CVwPBXhfEZfI7aNGoEs-15" value="" style="edgeStyle=orthogonalEdgeStyle;rounded=0;sketch=1;hachureGap=4;jiggle=2;curveFitting=1;orthogonalLoop=1;jettySize=auto;html=1;fontFamily=Architects Daughter;fontSource=https%3A%2F%2Ffonts.googleapis.com%2Fcss%3Ffamily%3DArchitects%2BDaughter;fontSize=16;endArrow=none;endFill=0;startArrow=classic;startFill=1;strokeColor=#FF3333;" parent="1" edge="1">
          <mxGeometry relative="1" as="geometry">
            <mxPoint x="724.5" y="3130" as="sourcePoint" />
            <mxPoint x="725" y="3290" as="targetPoint" />
            <Array as="points">
              <mxPoint x="724.5" y="3130" />
            </Array>
          </mxGeometry>
        </mxCell>
        <mxCell id="3CVwPBXhfEZfI7aNGoEs-16" value="&lt;font color=&quot;#ff6666&quot;&gt;读取&lt;br&gt;请求&lt;/font&gt;" style="text;html=1;strokeColor=none;fillColor=none;align=center;verticalAlign=middle;whiteSpace=wrap;rounded=0;sketch=1;fontSize=30;fontColor=#4D4D4D;" parent="1" vertex="1">
          <mxGeometry x="570.0000000000001" y="3190" width="175.42" height="50" as="geometry" />
        </mxCell>
        <mxCell id="3CVwPBXhfEZfI7aNGoEs-17" value="&lt;font color=&quot;#ff6666&quot;&gt;返回&lt;br&gt;结果&lt;/font&gt;" style="text;html=1;strokeColor=none;fillColor=none;align=center;verticalAlign=middle;whiteSpace=wrap;rounded=0;sketch=1;fontSize=30;fontColor=#4D4D4D;" parent="1" vertex="1">
          <mxGeometry x="677.3000000000001" y="3190" width="175.42" height="50" as="geometry" />
        </mxCell>
        <mxCell id="3CVwPBXhfEZfI7aNGoEs-18" value="" style="shape=image;verticalLabelPosition=bottom;labelBackgroundColor=default;verticalAlign=top;aspect=fixed;imageAspect=0;image=data:image/png,iVBORw0KGgoAAAANSUhEUgAAAOEAAADhCAMAAAAJbSJIAAAAkFBMVEX///8AYYoAXogAV4QAW4YAWYUAVoMAVIIAUoEAYov5/P0AZIz0+fv3+/zn8PS1zNiQssTE1+Di7PCAp7zO3ua90tyLrsFmla/X5Ouux9VTiaZxnbXv9fhunLSmwtCdu8s9fZ4ocpZXjKghb5RIg6J6o7k0eZsecpbU3+bC0NpnkKsAS3xjlrBEhKOQrL8Ba5JRzk1cAAANEUlEQVR4nO1d65aiOBBuQ0JQ8AZeUGkFQad3tmd9/7dbISEBFLvVSkJ75jtn/miPpEjqXql6e/uLv/iL7iCc7H/1kftr/d/KH5hejAJMM5vgXg5ELDvZzD3TKwLGwUa9KrDlvs9MLwoSa6vXBMJ2sjW9LjC8XxJYEGm7k8j02kAwd64SmNNouYtXYMhUEITQBY3E3Zle39NY8TOKcZqckIUbVJ73cW56iU8iYySRZfj25vnj95PdpJHufdOLfAajfkGGNSk/8OZ7ius0YrQwucQnMaPFPqVViTIKEKlvpBX/XKnK2BAf6p8Ot0n9sCI3NLO+57EtKCST5ueDcUyrNCI0NrE8AFzfwwLTlNaE6g9lxg/Gh/HVL8dp1dyxktV8FkaDwc/yPUZs9aSFzXZ9UtX/tk0dik5JvP69mP4U4RMX3EauHdMco2X1qHJKz1yJCXWzYD7SutbHMGGbRFrXOm+aOZU9tVASTHWu9hH4TL3j99a/iK54V7WTuxx32z7fMxLpDYW3I23byN6O3d90WV2GzHtCx1t/k5JbJJ6JJFmHT+uSc2Jw648ONrVt27IIwdf5EtlZZw10rjB69KbV8vHPGePVdnH4zI6udeFm5Yc16Co/7rgkQd/dhMEoXB2O9II7yamrph33EVF6l7Xi7xKnQWRnj6rXYwvF+zv/42iSkroziZxumq9TbrjYFz7G1/91iepy1ko6KVUXnETrgdWNAlyjEZHNEH6FT4PrfYQeEYfepL6P5NTBbRwkXNpkD/334cSt0Ug33VMcPl+h9WCANApqMoek3dvGMWdF/KiJ6e+rcQ9EuidUD4RrxYd/YZrUYgLHzunGmAeHN4//xKSHq9u4glscCLir2HOeYKHzUa1so73pWExnxR2p5Jl1rXBlG0nasZP6zljRuulIfYVoWeFGZHXLGB9yrUiuvvnhxzbY/N5/fYZXqLKNdrdk6pRtYosJvnZwjq+NVz+2KyTuO8WMXGU4V5Xi0C222F5/bbAsKroRp50KOjIi8PLqlyE7fST++nemfXlSUa9LlR1zJu3x9dfOM8b2N+o0RpkUON2SNzwI3iIfArbs5Du/dKjUQDxq7qrAvBASKG3x8dgL+J6rvLUkM9KnNBAoBgk7iC1KIaI3+LSJ2UkyI22PqusGE6etNGzyr/E3d8RPpNtof4It8UlMGau1eft+/jX5LlsNYkkiWYOt8TlE/JW3OQbv+HaWo/nnUqSSxwII8GDCBLWFFkNyO8nRRGB3jkSeUnTajK09onfVSU2crh1Uno2y27T07N87w6o76TOSe4POanBillur7LvbQNlKXuyGROXH1IUL7G7lLtpdUP0+kw2PBMDbsJW8aHfBgGPJKPxESOoCOylRaQcCVCyj2GqbPoSJJBHycDwIn79sULcuELyIvp2LVYc1O6awQuFTGHAoMZ7WGPNjCvura+Fp3J2LBYfH1nI9XPP4rx4FieZ1xidWcEzLmuvi5ZmOa/BwTR/4Z8OKFW5a2rCYG7hcXwkS0dFwLjwojin6XrTiDiyEifpMjgsC5XkCD+ZmQtqYtm2Y5XZZ4/4shhVpYzYWvuIqETzpMJOKP4b+7bswYF6igqMkHWLDuX7uJQLbNTmkbWMZTWh4TNZ8J0dxJyK3jIUrYIJ7EBSbiE7wi5C3OlsvCWhBxHPe4OJUpNPzI2L0nC54hQ28fTVIu3FOOb+ocHWmYhNv15erxo6oEjZvGyFP224k6QHTiT0L3vgY9sQ5vSdFAA7uRKmIOsyF3jcbXuTKGWfwJO7FOUUm7dOy7JQcwUn0RQqcGE0Pl5FcAs8tCyFPzRpva6LqRQ+FUsRGk25eilW96LEQNrCx53tRxgC/WX9xD45iE83GT4d8IQj85u9MbKJjNvLGvXIKf7d5WWoMs7bb2xsTCQSewrCkELlGMxk+9wIUBDjFJlpGA29sGfi3gp8OS5344GUdGJRdCZSYj1kpTi2DLgaPxKvxcsZlmN9k3G2DVDo5wv6GzgLdgfRmTe2zOJQktlYoKQerKFXmigutby4CzoqGVUSGC/CKXZOy5j+iTpLmmJQKw1js9A+r7FbWjkZ6wq6ZljcDrNr4F+EMQwX9rCjaVth5byYy32aiw0VhOzqpNIyFm3i7NYfSxyvwfisQgUUjoVN2sVTxrR7Rf9MxEM1gdqPiUrttyYkmohmFUYW+dc/pcciom4EkRnE1ob3kGwg7ofW1F9lEfbUGDYfnlpyoPcLvF2Ku7ZoXHKTppjskxapqqPIX68nrUZpDUuzdUvUPCkoSdZtuRaoWndQ/KJI3FdU/rIrCsUB/NDxJbqLeZvBFmhvpyO9JJ+qpphV3g7lO/+l41LuZ4LCjRR0W8EVw+KhxEyONFEpPWKcTxRQ+0cP7oSM2Ucvz2EPpTekGfJpEhP++O6pPgVPYwvpD4L5s09KJUu3LVDC7uYdLO4Z9XCzSNNo4MbzFhzsKXYtejqLQyImcwquyND9TwO9aesLakhh+O4V+XpoJHaGaEN2byPThNZtmEGMFvo4nQqfadCKj8Epo4cBYBtoYEGWn6BfsD7eCFbNf+hYzp5TrsDrRl2VSmnQiK6G9zKyJMDV0uF8UZ+hKJ7LEk9X8eCxuoEFHOGfilzUVLLIc/kU1lLCvzt8BB4vXmmvdeJym8TrDSt9A0L4Eb6IBUE9XTphZGU3DVNa+5pwIXColCxaVpoNKMKOmOYfmiCoUQl9RlFeG7uhk9DgidEWuRbVhdOAXo4567ykwc7+eYR/XR3pAx1Vk1amW2CkzMuqSOyA1CsFf9VLeU9CgMa6NvJLHiN8zBbYhQ0lhT/0ushxwvTZStrcY7ZWkFyuy2sIH1fuYcFrkJ74wrDLOM+A2ZFoR1pget0qbE7BAbTWQIXRy3tItbjFcn8OsLq2tdKIwIzW3mvpiW56h3JxheX7wXMPC7tVoJChQl+FjB6bSyKWWQ2GFd/D1NllzOhGme1UMuWQXSaVZI6u0cqpZCh6898Lw3WmOscF2psbx5zwhe2GKmF9hB3isC0QfvOpumjXH2JwZMlGStWFNvkW8wisFHdf0zP1QkX8PD25z6hKyTwpo5NOSyniFaBTEHbgh+1pJrn8wPSR2nUhEY3B+5Fe6S/NTXJHAvPJ7cbtp7ZMYfiyOTm0gESIHaP3IzmF5c14US5bhYJ6CJ+psj3DRr01+JS5w+YvHNpHXK4lGlsIc5+0lYtin1jFd9iudpZHzDque+FVZpzinsrinFJ/8GLf25YVBtNoTKVyhB9lw8VmkaMqgLXLF1+xWDQJsB3od/uQkO2nBDrctec/KZiLOVo2FsUvtOortx7J/Nuwgm9JSQ7Y4KNWAftQvPtVyE3QnpmfAtuuPG+PIG+Qwf0PPFTt/L/M3gINsRs2Rjg3RyZwBTaUwcpYNATypYX0W+UUOsxj2ieDN06vw1qXqQA6c9z2vndPLztxJ/r2eKO4ZWzEhBHCQzbQyrgqnF5s1KrQi1dVB18+EbbUH0/5RRvkQQTu+chpDhNQ0zmrBpOQbcoILjk/XrkWtfosnOsulkcYbaLNSNyJICTcKPz7aZ3jnkTeNnZ4Hh3IkkbapUjmJSu7ttz6wlA1Ul4gbn6U40dk6PypH2ZGjpnsM+bB5vT2Cx3xoOHY1XZqaYoT6Wq+FeAHnRqLpzYYu1t0zaMa3UVcRfHQkD4xOfg68gElX497BnmozbUrwskZtz11Q7Te0uP8G39q5BXNLp1YssGJBTW1dYHxXz6MGXnTGKP/HYvP6ZmZGqVIrw/Nn28X7Ok5O/R4iFiHCQ9fX3i46qbLBR/MgTpFN8Fn19poZKvCZFTcwPKm4LRlOflErJ60VGnu9ewk0if4kcZqp08YOYhv9A/zUG/COkGV94W6NviCPOKfNXGv/kMEabI7sKsHNhGmFNISxZdvxzkCLm10fJtx3uEh6l9tm2chN48/F2FR3SR+EQo9epY6662D1EXZq3vCj2JAmdTbNJh/GpyrBIapsIrIslATjF6KuQKVgMRnPzPRbUouprJJCRnucq4McUGO27bA6yOvsPWp2tokyVEYoOl2YEqkAcnpLDzaJ3xkMT/KgkvWrKYsCYcVpwsj8JEwFGFcKaxHdvKJW3FbLo4nbgZmt4NjSio+B7OwFlf+8FplB9PB6Esc/1twMoqKk1jQ2jbsK2Uv4hzWM66E25OhtvKQD/rF+fc5evh43LmhtG0lqenArPMqsaHlSsenxuwoQoFodGtWdldUAf1k7qrbRoUqKMPtTDaNaa6PzIhVhtrbkWSXx64nUM8KlqKdVMVqsE/APRNzj0dnNTidGQUkj+fOiJL4NJy6j8bJ4+WUQLZh+tA1PNFcJf13oR/qiocYCczffRo01vPrhLW3UQ+4LxjYkxv2XJ3GU0R561fQUx4KgHjY6M1I5ZinW0vjFILyzX+V+/Wc/GhOqsZGtGQTO65pvHJ//vrLiLzDev16k+C/+4ifif32flww4isUqAAAAAElFTkSuQmCC;" parent="1" vertex="1">
          <mxGeometry x="590" y="3290" width="240" height="240" as="geometry" />
        </mxCell>
        <mxCell id="3CVwPBXhfEZfI7aNGoEs-19" value="&lt;p style=&quot;line-height: 140%; font-size: 30px;&quot;&gt;&lt;br&gt;&lt;/p&gt;" style="rounded=1;whiteSpace=wrap;html=1;shadow=0;glass=0;sketch=1;fillWeight=2;hachureGap=12;hachureAngle=-41;jiggle=1;curveFitting=1;simplification=0;strokeColor=none;strokeWidth=2;fontFamily=Architects Daughter;fontSource=https%3A%2F%2Ffonts.googleapis.com%2Fcss%3Ffamily%3DArchitects%2BDaughter;fontSize=30;fontColor=#666666;fillColor=#95D2F5;" parent="1" vertex="1">
          <mxGeometry x="590" y="3280" width="250" height="240" as="geometry" />
        </mxCell>
        <mxCell id="3CVwPBXhfEZfI7aNGoEs-20" value="新评论存储库&lt;br&gt;TDSQL-C MySQL" style="text;html=1;strokeColor=none;fillColor=none;align=center;verticalAlign=middle;whiteSpace=wrap;rounded=0;sketch=1;fontSize=30;fontColor=#FF66FF;" parent="1" vertex="1">
          <mxGeometry x="590" y="3490" width="257.5" height="80" as="geometry" />
        </mxCell>
        <mxCell id="dT3cGDvqAmsEhnKFyyNW-1" value="剩余流量&lt;br&gt;查询DB" style="text;html=1;strokeColor=none;fillColor=none;align=center;verticalAlign=middle;whiteSpace=wrap;rounded=0;sketch=1;fontSize=30;fontColor=#4D4D4D;" parent="1" vertex="1">
          <mxGeometry x="-89.99999999999989" y="2760" width="175.42" height="50" as="geometry" />
        </mxCell>
        <mxCell id="dT3cGDvqAmsEhnKFyyNW-2" value="剩余流量&lt;br&gt;查询DB" style="text;html=1;strokeColor=none;fillColor=none;align=center;verticalAlign=middle;whiteSpace=wrap;rounded=0;sketch=1;fontSize=30;fontColor=#4D4D4D;" parent="1" vertex="1">
          <mxGeometry x="1380" y="2753.5" width="175.42" height="50" as="geometry" />
        </mxCell>
        <mxCell id="dT3cGDvqAmsEhnKFyyNW-3" value="返回数据" style="text;html=1;strokeColor=none;fillColor=none;align=center;verticalAlign=middle;whiteSpace=wrap;rounded=0;sketch=1;fontSize=30;fontColor=#4D4D4D;" parent="1" vertex="1">
          <mxGeometry x="90" y="2757" width="150" height="46.5" as="geometry" />
        </mxCell>
        <mxCell id="dT3cGDvqAmsEhnKFyyNW-4" value="返回数据" style="text;html=1;strokeColor=none;fillColor=none;align=center;verticalAlign=middle;whiteSpace=wrap;rounded=0;sketch=1;fontSize=30;fontColor=#4D4D4D;" parent="1" vertex="1">
          <mxGeometry x="1230" y="2750" width="150" height="46.5" as="geometry" />
        </mxCell>
      </root>
    </mxGraphModel>
  </diagram>
</mxfile>
